# xmcd
#
# Track frame offsets:
#	150
#	13358
#	26737
#	41849
#	59612
#	69607
#	83617
#	99215
#	112617
#	126249
#
# Disc length: 1889 seconds
#
# Revision: 1
# Processed by: cddbd v1.4PL0 Copyright (c) Steve Scherf et al.
# Submitted via: EasyCDDAExtractor 5.0.6
#
DISCID=80075f0a
DTITLE=Luis Miguel - Decídete
DYEAR=1983
DGENRE=Ballad
TTITLE0=Decidete
TTITLE1=Lupe
TTITLE2=No Me Puedes Dejar Así
TTITLE3=Safari
TTITLE4=Bandido Cupido
TTITLE5=Campeón
TTITLE6=El Brujo
TTITLE7=En Japón
TTITLE8=Soy Como Soy
TTITLE9=Mini Amor
EXTD=
EXTT0=
EXTT1=
EXTT2=
EXTT3=
EXTT4=
EXTT5=
EXTT6=
EXTT7=
EXTT8=
EXTT9=
PLAYORDER=
